<svg t="1770506702256" class="icon" viewBox="0 0 1024 1024" version="1.1" xmlns="http://www.w3.org/2000/svg" p-id="2414" width="200" height="200"><path d="M436 128H168a40 40 0 0 0-40 40v268a40 40 0 0 0 40 40h268a40 40 0 0 0 40-40V168a40 40 0 0 0-40-40z m-32 276H200V200h204z m32 144H168a40 40 0 0 0-40 40v268a40 40 0 0 0 40 40h268a40 40 0 0 0 40-40V588a40 40 0 0 0-40-40z m-32 276H200V620h204z m452-276H588a40 40 0 0 0-40 40v268a40 40 0 0 0 40 40h268a40 40 0 0 0 40-40V588a40 40 0 0 0-40-40z m-32 276H620V620h204zM716 118c-104.9 0-190 85.1-190 190s85.1 190 190 190 190-85.1 190-190-85.1-190-190-190z m83.4 273.4A117.8 117.8 0 1 1 834 308a117 117 0 0 1-34.6 83.4z" p-id="2415"></path></svg>