<svg width="22" height="22" viewBox="0 0 22 22" fill="none" xmlns="http://www.w3.org/2000/svg">
<path d="M10.8606 1.91667C9.68602 1.91667 8.52292 2.14802 7.43773 2.59752C6.35254 3.04702 5.36651 3.70587 4.53594 4.53643C3.70537 5.367 3.04653 6.35303 2.59703 7.43822C2.14753 8.52341 1.91617 9.68651 1.91617 10.8611C1.91617 12.0357 2.14753 13.1988 2.59703 14.284C3.04653 15.3692 3.70537 16.3552 4.53594 17.1858C5.36651 18.0164 6.35254 18.6752 7.43773 19.1247C8.52292 19.5742 9.68602 19.8056 10.8606 19.8056C13.2328 19.8056 15.5079 18.8632 17.1853 17.1858C18.8627 15.5084 19.8051 13.2333 19.8051 10.8611C19.8051 8.4889 18.8627 6.21384 17.1853 4.53643C15.5079 2.85903 13.2328 1.91667 10.8606 1.91667ZM10.8606 1.12315e-08C12.287 -6.48523e-05 13.6993 0.280818 15.0171 0.826611C16.3349 1.3724 17.5323 2.17242 18.5409 3.18097C19.5495 4.18953 20.3496 5.38687 20.8954 6.70463C21.4413 8.02239 21.7222 9.43477 21.7222 10.8611C21.7222 12.2875 21.4413 13.6998 20.8954 15.0176C20.3496 16.3354 19.5495 17.5327 18.5409 18.5413C17.5323 19.5498 16.3349 20.3498 15.0171 20.8956C13.6993 21.4414 12.287 21.7223 10.8606 21.7222C7.98016 21.7221 5.21772 20.5777 3.18097 18.5409C1.14422 16.5041 0 13.7416 0 10.8611C0 7.98065 1.14422 5.21816 3.18097 3.18132C5.21772 1.14448 7.98016 0.000131001 10.8606 1.12315e-08ZM5.93223 7.75739C5.93223 7.34598 6.09566 6.95142 6.38657 6.66051C6.67748 6.3696 7.07204 6.20617 7.48345 6.20617C7.89486 6.20617 8.28942 6.3696 8.58033 6.66051C8.87124 6.95142 9.03467 7.34598 9.03467 7.75739C9.03467 8.1688 8.87124 8.56336 8.58033 8.85427C8.28942 9.14518 7.89486 9.30861 7.48345 9.30861C7.07204 9.30861 6.67748 9.14518 6.38657 8.85427C6.09566 8.56336 5.93223 8.1688 5.93223 7.75739ZM12.6853 7.75739C12.6853 7.34581 12.8488 6.95109 13.1398 6.66006C13.4308 6.36903 13.8256 6.20553 14.2371 6.20553C14.6487 6.20553 15.0434 6.36903 15.3345 6.66006C15.6255 6.95109 15.789 7.34581 15.789 7.75739C15.789 8.16897 15.6255 8.56369 15.3345 8.85472C15.0434 9.14575 14.6487 9.30925 14.2371 9.30925C13.8256 9.30925 13.4308 9.14575 13.1398 8.85472C12.8488 8.56369 12.6853 8.16897 12.6853 7.75739ZM5.56295 11.5H16.2375C16.2375 13.9444 13.9899 16.8794 10.8389 16.8794C7.68917 16.8794 5.56295 13.9444 5.56295 11.5Z" fill="#333333"/>
</svg>
