<svg width="26" height="26" viewBox="0 0 26 26" fill="none" xmlns="http://www.w3.org/2000/svg">
<rect width="26" height="26" rx="13" fill="#8746F8"/>
<path d="M7.84952 7.51576C7.60426 7.51576 7.36904 7.61319 7.19561 7.78662C7.02219 7.96004 6.92476 8.19526 6.92476 8.44052V10.7524C6.92476 10.8739 6.94868 10.9941 6.99515 11.1063C7.04163 11.2185 7.10974 11.3204 7.19561 11.4063C7.28149 11.4922 7.38343 11.5603 7.49563 11.6068C7.60782 11.6533 7.72808 11.6772 7.84952 11.6772H10.1614C10.2829 11.6772 10.4031 11.6533 10.5153 11.6068C10.6275 11.5603 10.7294 11.4922 10.8153 11.4063C10.9012 11.3204 10.9693 11.2185 11.0158 11.1063C11.0623 10.9941 11.0862 10.8739 11.0862 10.7524V8.44052C11.0862 8.19526 10.9887 7.96004 10.8153 7.78662C10.6419 7.61319 10.4067 7.51576 10.1614 7.51576H7.84952ZM7.84952 6.591H10.1614C10.6519 6.591 11.1224 6.78586 11.4692 7.13271C11.8161 7.47956 12.0109 7.95 12.0109 8.44052V10.7524C12.0109 11.2429 11.8161 11.7134 11.4692 12.0602C11.1224 12.4071 10.6519 12.6019 10.1614 12.6019H7.84952C7.359 12.6019 6.88856 12.4071 6.54171 12.0602C6.19486 11.7134 6 11.2429 6 10.7524V8.44052C6 7.95 6.19486 7.47956 6.54171 7.13271C6.88856 6.78586 7.359 6.591 7.84952 6.591ZM7.84952 14.9138C7.72808 14.9138 7.60782 14.9377 7.49563 14.9842C7.38343 15.0307 7.28149 15.0988 7.19561 15.1847C7.10974 15.2706 7.04163 15.3725 6.99515 15.4847C6.94868 15.5969 6.92476 15.7171 6.92476 15.8386V18.1505C6.92476 18.3957 7.02219 18.631 7.19561 18.8044C7.36904 18.9778 7.60426 19.0752 7.84952 19.0752H10.1614C10.4067 19.0752 10.6419 18.9778 10.8153 18.8044C10.9887 18.631 11.0862 18.3957 11.0862 18.1505V15.8386C11.0862 15.7171 11.0623 15.5969 11.0158 15.4847C10.9693 15.3725 10.9012 15.2706 10.8153 15.1847C10.7294 15.0988 10.6275 15.0307 10.5153 14.9842C10.4031 14.9377 10.2829 14.9138 10.1614 14.9138H7.84952ZM7.84952 13.9891H10.1614C10.6519 13.9891 11.1224 14.1839 11.4692 14.5308C11.8161 14.8776 12.0109 15.3481 12.0109 15.8386V18.1505C12.0109 18.641 11.8161 19.1114 11.4692 19.4583C11.1224 19.8051 10.6519 20 10.1614 20H7.84952C7.359 20 6.88856 19.8051 6.54171 19.4583C6.19486 19.1114 6 18.641 6 18.1505V15.8386C6 15.3481 6.19486 14.8776 6.54171 14.5308C6.88856 14.1839 7.359 13.9891 7.84952 13.9891ZM15.2476 14.9138C15.1261 14.9138 15.0059 14.9377 14.8937 14.9842C14.7815 15.0307 14.6796 15.0988 14.5937 15.1847C14.5078 15.2706 14.4397 15.3725 14.3932 15.4847C14.3467 15.5969 14.3228 15.7171 14.3228 15.8386V18.1505C14.3228 18.3957 14.4203 18.631 14.5937 18.8044C14.7671 18.9778 15.0023 19.0752 15.2476 19.0752H17.5595C17.6809 19.0752 17.8012 19.0513 17.9134 19.0048C18.0256 18.9584 18.1275 18.8903 18.2134 18.8044C18.2993 18.7185 18.3674 18.6166 18.4138 18.5044C18.4603 18.3922 18.4842 18.2719 18.4842 18.1505V15.8386C18.4842 15.7171 18.4603 15.5969 18.4138 15.4847C18.3674 15.3725 18.2993 15.2706 18.2134 15.1847C18.1275 15.0988 18.0256 15.0307 17.9134 14.9842C17.8012 14.9377 17.6809 14.9138 17.5595 14.9138H15.2476ZM15.2476 13.9891H17.5595C18.05 13.9891 18.5204 14.1839 18.8673 14.5308C19.2141 14.8776 19.409 15.3481 19.409 15.8386V18.1505C19.409 18.641 19.2141 19.1114 18.8673 19.4583C18.5204 19.8051 18.05 20 17.5595 20H15.2476C14.7571 20 14.2866 19.8051 13.9398 19.4583C13.5929 19.1114 13.3981 18.641 13.3981 18.1505V15.8386C13.3981 15.3481 13.5929 14.8776 13.9398 14.5308C14.2866 14.1839 14.7571 13.9891 15.2476 13.9891Z" fill="white"/>
<path d="M17.7113 6.6539L19.3461 8.28866C20.218 9.16053 20.218 10.0324 19.3461 10.9043L17.7113 12.539C16.8395 13.4109 15.9676 13.4109 15.0957 12.539L13.461 10.9043C12.5891 10.0324 12.5891 9.16053 13.461 8.28866L15.0957 6.6539C15.9676 5.78203 16.8395 5.78203 17.7113 6.6539Z" fill="white"/>
</svg>
