<svg width="27" height="27" viewBox="0 0 27 27" fill="none" xmlns="http://www.w3.org/2000/svg">
<circle cx="13.5" cy="13.5" r="13.5" fill="#8746F8"/>
<path d="M17.1111 16.1C17.8773 16.1 18.6121 16.395 19.1539 16.9201C19.6956 17.4452 20 18.1574 20 18.9V21H17.8333V18.9C17.8333 18.7285 17.7684 18.5631 17.6508 18.4349C17.5333 18.3068 17.3713 18.225 17.1956 18.2049L17.1111 18.2H9.88889C9.71199 18.2 9.54126 18.263 9.40906 18.3769C9.27687 18.4908 9.19242 18.6478 9.17172 18.8181L9.16667 18.9V21H7V18.9C7 18.1574 7.30436 17.4452 7.84614 16.9201C8.38791 16.395 9.12271 16.1 9.88889 16.1H17.1111ZM13.5 7C14.6493 7 15.7515 7.4425 16.5641 8.23015C17.3768 9.0178 17.8333 10.0861 17.8333 11.2C17.8333 12.3139 17.3768 13.3822 16.5641 14.1698C15.7515 14.9575 14.6493 15.4 13.5 15.4C12.3507 15.4 11.2485 14.9575 10.4359 14.1698C9.62321 13.3822 9.16667 12.3139 9.16667 11.2C9.16667 10.0861 9.62321 9.0178 10.4359 8.23015C11.2485 7.4425 12.3507 7 13.5 7ZM13.5 9.1C12.9254 9.1 12.3743 9.32125 11.9679 9.71508C11.5616 10.1089 11.3333 10.643 11.3333 11.2C11.3333 11.757 11.5616 12.2911 11.9679 12.6849C12.3743 13.0788 12.9254 13.3 13.5 13.3C14.0746 13.3 14.6257 13.0788 15.0321 12.6849C15.4384 12.2911 15.6667 11.757 15.6667 11.2C15.6667 10.643 15.4384 10.1089 15.0321 9.71508C14.6257 9.32125 14.0746 9.1 13.5 9.1Z" fill="white"/>
</svg>
