<svg width="27" height="27" viewBox="0 0 27 27" fill="none" xmlns="http://www.w3.org/2000/svg">
<circle cx="13.5" cy="13.5" r="13.5" fill="#8746F8"/>
<path d="M18.1534 11.7143H10.9886V8.71429C10.9886 8.07019 11.2532 7.45247 11.7242 6.99703C12.1952 6.54158 12.8339 6.28571 13.5 6.28571C14.1661 6.28571 14.8048 6.54158 15.2758 6.99703C15.7468 7.45247 16.0114 8.07019 16.0114 8.71429V9.78571C16.0114 9.95621 16.0814 10.1197 16.2061 10.2403C16.3307 10.3608 16.4998 10.4286 16.6761 10.4286C16.8524 10.4286 17.0215 10.3608 17.1462 10.2403C17.2709 10.1197 17.3409 9.95621 17.3409 9.78571V8.71286C17.3409 6.66214 15.6208 5 13.5 5C11.3792 5 9.65909 6.66214 9.65909 8.71286V11.7143H8.84659C7.83097 11.7143 7 12.5179 7 13.5V19.2143C7 20.1964 7.83097 21 8.84659 21H18.1534C19.169 21 20 20.1964 20 19.2143V13.5C20 12.5179 19.169 11.7143 18.1534 11.7143ZM18.6705 18.8214C18.6697 19.058 18.5722 19.2847 18.3992 19.452C18.2262 19.6193 17.9918 19.7136 17.7472 19.7143H9.25284C9.00819 19.7136 8.77377 19.6193 8.60078 19.452C8.42779 19.2847 8.33028 19.058 8.32955 18.8214V13.8929C8.33028 13.6563 8.42779 13.4296 8.60078 13.2623C8.77377 13.095 9.00819 13.0007 9.25284 13H17.7472C17.9918 13.0007 18.2262 13.095 18.3992 13.2623C18.5722 13.4296 18.6697 13.6563 18.6705 13.8929V18.8214Z" fill="white"/>
<path d="M11.6534 14.9286C12.0966 14.9286 12.3182 15.1429 12.3182 15.5714V17.1429C12.3182 17.5714 12.0966 17.7857 11.6534 17.7857C11.2102 17.7857 10.9886 17.5714 10.9886 17.1429V15.5714C10.9886 15.1429 11.2102 14.9286 11.6534 14.9286Z" fill="white"/>
<path d="M15.3466 14.9286C15.7898 14.9286 16.0114 15.1429 16.0114 15.5714V17.1429C16.0114 17.5714 15.7898 17.7857 15.3466 17.7857C14.9034 17.7857 14.6818 17.5714 14.6818 17.1429V15.5714C14.6818 15.1429 14.9034 14.9286 15.3466 14.9286Z" fill="white"/>
</svg>
