<svg width="13" height="9" viewBox="0 0 13 9" fill="none" xmlns="http://www.w3.org/2000/svg">
<path d="M11.8688 4.04453L12.7531 3.22049C12.9042 3.07931 12.989 2.88889 12.989 2.69049C12.989 2.49208 12.9042 2.30166 12.7531 2.16048C12.6792 2.09055 12.5909 2.03498 12.4933 1.99704C12.3958 1.95909 12.291 1.93954 12.1851 1.93954C12.0792 1.93954 11.9744 1.95909 11.8769 1.99704C11.7793 2.03498 11.691 2.09055 11.617 2.16048L10.4948 3.20626C9.96772 2.95905 9.4017 2.75678 8.83407 2.60321C8.88067 2.53834 8.91576 2.46703 8.93801 2.39196L9.3546 0.944648C9.38653 0.83416 9.39067 0.718405 9.3667 0.606217C9.34274 0.49403 9.29131 0.388375 9.21634 0.297317C9.14137 0.206259 9.04484 0.132205 8.93411 0.0808074C8.82339 0.0294097 8.7014 0.00202701 8.57745 0.000749116C8.39963 0.00115257 8.22697 0.0559301 8.08649 0.156509C7.94602 0.257088 7.84565 0.397792 7.80111 0.556601L7.3837 2.00316C7.35366 2.10804 7.35203 2.21292 7.36909 2.31405C7.08212 2.27825 6.79299 2.25924 6.50342 2.25712C6.22731 2.25712 5.92847 2.27959 5.61745 2.31854C5.63714 2.21395 5.63243 2.10669 5.60364 2.00391L5.18867 0.556601C5.1439 0.397842 5.04351 0.257187 4.9031 0.156522C4.76269 0.0558574 4.59015 0.000828941 4.41233 0C4.28826 0.00101787 4.16609 0.0282215 4.05518 0.0795267C3.94427 0.130832 3.84756 0.204877 3.77247 0.295988C3.69737 0.3871 3.64589 0.49286 3.62195 0.605166C3.59801 0.717471 3.60226 0.833342 3.63436 0.943899L4.05096 2.39121C4.07451 2.47361 4.11267 2.54853 4.16059 2.6152C3.59782 2.77252 3.03668 2.97703 2.5137 3.22499L2.51046 3.22049L1.37274 2.16048C1.29847 2.09099 1.20997 2.03581 1.11239 1.99815C1.0148 1.96048 0.910073 1.94109 0.80429 1.94109C0.698507 1.94109 0.593778 1.96048 0.496192 1.99815C0.398605 2.03581 0.310106 2.09099 0.235839 2.16048C0.0847306 2.30166 0 2.49208 0 2.69049C0 2.88889 0.0847306 3.07931 0.235839 3.22049L1.14292 4.06551C0.458347 4.61761 0.00683434 5.27235 0.00683434 6.0035C0.00683434 6.20218 0.0923918 6.39272 0.244685 6.53321C0.396978 6.6737 0.603532 6.75262 0.818907 6.75262C1.03428 6.75262 1.24084 6.6737 1.39313 6.53321C1.54542 6.39272 1.63098 6.20218 1.63098 6.0035C1.63098 5.07907 4.50003 3.75537 6.50342 3.75537C8.59775 3.75537 11.3759 5.03637 11.3759 6.0035C11.3759 6.20218 11.4614 6.39272 11.6137 6.53321C11.766 6.6737 11.9726 6.75262 12.1879 6.75262C12.4033 6.75262 12.6099 6.6737 12.7621 6.53321C12.9144 6.39272 13 6.20218 13 6.0035C13 5.25587 12.5509 4.59664 11.8688 4.04453Z" fill="#333333"/>
<path d="M4.0672 7.12718C4.0672 7.37313 4.13021 7.61666 4.25265 7.84388C4.37508 8.0711 4.55453 8.27756 4.78075 8.45147C5.00697 8.62537 5.27554 8.76332 5.57112 8.85744C5.86669 8.95156 6.18349 9 6.50342 9C6.82335 9 7.14014 8.95156 7.43572 8.85744C7.73129 8.76332 7.99986 8.62537 8.22608 8.45147C8.45231 8.27756 8.63176 8.0711 8.75419 7.84388C8.87662 7.61666 8.93964 7.37313 8.93964 7.12718C8.93964 6.88124 8.87662 6.63771 8.75419 6.41049C8.63176 6.18327 8.45231 5.97681 8.22608 5.8029C7.99986 5.629 7.73129 5.49105 7.43572 5.39693C7.14014 5.30281 6.82335 5.25437 6.50342 5.25437C6.18349 5.25437 5.86669 5.30281 5.57112 5.39693C5.27554 5.49105 5.00697 5.629 4.78075 5.8029C4.55453 5.97681 4.37508 6.18327 4.25265 6.41049C4.13021 6.63771 4.0672 6.88124 4.0672 7.12718Z" fill="#333333"/>
</svg>
