<svg width="15" height="8" viewBox="0 0 15 8" fill="none" xmlns="http://www.w3.org/2000/svg">
<path d="M7.08874 5.19063C10.4487 5.19063 13.3587 3.39063 14.1762 0.833129C14.2212 0.660628 14.1987 0.488128 14.1087 0.330628C14.0187 0.180628 13.8762 0.0681281 13.7037 0.0231281C13.3737 -0.0668719 13.0287 0.113128 12.9237 0.435628C12.3087 2.44563 9.84874 3.92313 7.08874 3.92313C4.32874 3.92313 1.86874 2.44563 1.25374 0.435628C1.20124 0.270628 1.08124 0.143128 0.923743 0.0681285C0.766243 -0.00687154 0.593743 -0.0143716 0.428743 0.0381284C0.106243 0.158128 -0.0662566 0.503129 0.0237434 0.833129C0.826243 3.39063 3.72874 5.19063 7.08874 5.19063Z" fill="#333333"/>
<path d="M13.8687 4.59063L12.7287 2.95563C12.6687 2.82813 12.5487 2.73813 12.4062 2.70813C12.2637 2.68563 12.1212 2.73063 12.0162 2.82813C11.8812 2.89563 11.7912 3.02313 11.7612 3.16563C11.7387 3.30813 11.7837 3.45813 11.8887 3.56313L13.0287 5.18313C13.0887 5.31063 13.2087 5.40063 13.3512 5.43063C13.4937 5.45313 13.6362 5.41563 13.7412 5.31063C13.8687 5.24313 13.9587 5.11563 13.9887 4.97313C14.0112 4.84563 13.9737 4.69563 13.8687 4.59063ZM9.69874 6.81813L9.36124 4.71813C9.36124 4.59063 9.29374 4.47813 9.19624 4.40313C9.09124 4.32813 8.96374 4.31313 8.84374 4.34313L8.72374 4.35813C8.59624 4.36563 8.47624 4.42563 8.40124 4.53063C8.32624 4.63563 8.31124 4.77063 8.34874 4.89063L8.68624 6.99063C8.68624 7.11813 8.75374 7.23063 8.85124 7.30563C8.95624 7.38063 9.08374 7.39563 9.20374 7.36563H9.32374C9.45874 7.36563 9.57874 7.29813 9.65374 7.18563C9.72874 7.08063 9.74374 6.94563 9.69874 6.81813ZM5.04874 4.35063H4.93624C4.81624 4.31313 4.68874 4.33563 4.58374 4.41063C4.47874 4.48563 4.41874 4.59813 4.41874 4.72563L4.08874 6.82563C4.05124 6.94563 4.06624 7.08063 4.14124 7.18563C4.21624 7.29063 4.33624 7.35063 4.46374 7.35813L4.58374 7.37313C4.70374 7.41063 4.83124 7.38813 4.93624 7.31313C5.04124 7.23813 5.10124 7.12563 5.10874 7.00563L5.43874 4.90563C5.48374 4.78563 5.46874 4.64313 5.39374 4.53813C5.30374 4.41813 5.18374 4.35813 5.04874 4.35063ZM2.16124 2.82063C2.05624 2.72313 1.90624 2.67813 1.76374 2.70813C1.62124 2.73813 1.50124 2.82813 1.44124 2.95563L0.323744 4.59813C0.218744 4.70313 0.173744 4.85313 0.196244 4.99563C0.207674 5.06752 0.236091 5.13564 0.279138 5.19434C0.322184 5.25304 0.378615 5.30062 0.443744 5.33313C0.495349 5.38147 0.557297 5.4174 0.624878 5.43819C0.692459 5.45899 0.763891 5.46409 0.833743 5.45313C0.976243 5.43063 1.09624 5.33313 1.16374 5.20563L2.28874 3.54813C2.38624 3.44313 2.43124 3.29313 2.40124 3.15063C2.37874 3.00813 2.28874 2.88813 2.16124 2.82063Z" fill="#333333"/>
</svg>
