<svg width="46" height="46" viewBox="0 0 46 46" fill="none" xmlns="http://www.w3.org/2000/svg">
<g filter="url(#filter0_d_27_16)">
<rect x="8" y="5" width="36" height="36" rx="18" fill="#8746F8" stroke="white" stroke-width="2"/>
<path d="M30.6317 21.9H23.9951L26.7847 19.1089C26.9963 18.9029 27.1175 18.6212 27.1216 18.3259C27.1257 18.0305 27.0125 17.7456 26.8067 17.5337C26.7019 17.4314 26.578 17.3508 26.4421 17.2963C26.3061 17.2419 26.1608 17.2148 26.0144 17.2166C25.868 17.2184 25.7233 17.249 25.5887 17.3067C25.4542 17.3644 25.3323 17.448 25.23 17.5528L20.588 22.1963C20.5777 22.2051 20.5645 22.208 20.5543 22.2183C20.4511 22.3225 20.37 22.4465 20.3161 22.5829C20.2621 22.7192 20.2364 22.8651 20.2404 23.0117C20.2404 23.2919 20.3431 23.572 20.5557 23.7832C20.5645 23.792 20.5763 23.7949 20.5851 23.8023L25.23 28.4472C25.6715 28.8872 26.3769 28.8989 26.8067 28.4692C27.0125 28.2573 27.1257 27.9724 27.1216 27.677C27.1175 27.3817 26.9963 27.1001 26.7847 26.894L23.9936 24.1H30.6317C31.2551 24.1 31.7611 23.6072 31.7611 23C31.7611 22.3928 31.2551 21.9 30.6317 21.9Z" fill="white"/>
<path d="M26 12C24.5554 11.9998 23.1249 12.2842 21.7903 12.8369C20.4556 13.3897 19.2429 14.1999 18.2214 15.2214C17.1999 16.2429 16.3897 17.4556 15.8369 18.7903C15.2842 20.1249 14.9998 21.5554 15 23C15 29.0764 19.9236 34 26 34C32.0764 34 37 29.0764 37 23C37 16.9236 32.0764 12 26 12ZM26 31.8C24.8444 31.8 23.7001 31.5724 22.6324 31.1301C21.5647 30.6879 20.5946 30.0397 19.7775 29.2225C18.9603 28.4054 18.3121 27.4353 17.8699 26.3676C17.4276 25.2999 17.2 24.1556 17.2 23C17.2 21.8444 17.4276 20.7001 17.8699 19.6324C18.3121 18.5647 18.9603 17.5946 19.7775 16.7775C20.5946 15.9603 21.5647 15.3121 22.6324 14.8699C23.7001 14.4276 24.8444 14.2 26 14.2C28.3339 14.2 30.5722 15.1271 32.2225 16.7775C33.8729 18.4278 34.8 20.6661 34.8 23C34.8 25.3339 33.8729 27.5722 32.2225 29.2225C30.5722 30.8729 28.3339 31.8 26 31.8Z" fill="white"/>
</g>
<defs>
<filter id="filter0_d_27_16" x="0" y="0" width="46" height="46" filterUnits="userSpaceOnUse" color-interpolation-filters="sRGB">
<feFlood flood-opacity="0" result="BackgroundImageFix"/>
<feColorMatrix in="SourceAlpha" type="matrix" values="0 0 0 0 0 0 0 0 0 0 0 0 0 0 0 0 0 0 127 0" result="hardAlpha"/>
<feOffset dx="-3"/>
<feGaussianBlur stdDeviation="2"/>
<feComposite in2="hardAlpha" operator="out"/>
<feColorMatrix type="matrix" values="0 0 0 0 1 0 0 0 0 1 0 0 0 0 1 0 0 0 0.5 0"/>
<feBlend mode="normal" in2="BackgroundImageFix" result="effect1_dropShadow_27_16"/>
<feBlend mode="normal" in="SourceGraphic" in2="effect1_dropShadow_27_16" result="shape"/>
</filter>
</defs>
</svg>
