<svg t="1771907899159" class="icon" viewBox="0 0 1024 1024" version="1.1" xmlns="http://www.w3.org/2000/svg" p-id="29928" width="200" height="200"><path d="M511.470951 60.188824c-247.181659 0-447.557292 200.376657-447.557292 447.557292 0 247.171426 200.376657 447.552176 447.557292 447.552176 247.176542 0 447.552176-200.38075 447.552175-447.552176 0-247.181659-200.375633-447.557292-447.552175-447.557292z m253.322519 476.099349c-15.988136 15.988136-41.909505 15.988136-57.893548 0l-153.895019-153.890926v349.276918c0 22.471804-18.212804 40.684608-40.684608 40.684608-22.472827 0-40.688701-18.212804-40.688701-40.684608v-351.526145l-156.324348 156.289555c-15.792685 15.788591-41.396829 15.788591-57.19463 0l-0.114611-0.11461c-15.792685-15.792685-15.792685-41.393759 0-57.18542l224.217645-224.166479c8.096399-8.093329 18.767436-11.972683 29.378097-11.768022 0.246617-0.004093 0.477884-0.071631 0.725525-0.071631 0.042979 0 0.080841 0.00921 0.12382 0.00921 10.521634-0.030699 21.051455 3.952009 29.076222 11.979845L764.79347 478.388485c15.989159 15.989159 15.989159 41.910529 0 57.899688z m0 0" p-id="29929" fill="#ffffff"></path></svg>