<?xml version="1.0" standalone="no"?><!DOCTYPE svg PUBLIC "-//W3C//DTD SVG 1.1//EN" "http://www.w3.org/Graphics/SVG/1.1/DTD/svg11.dtd"><svg t="1771995676452" class="icon" viewBox="0 0 1024 1024" version="1.1" xmlns="http://www.w3.org/2000/svg" p-id="4912" id="mx_n_1771995676452" xmlns:xlink="http://www.w3.org/1999/xlink" width="200" height="200"><path d="M638.693769 311.555519l-129.957576 129.957576-129.957576-129.957576-71.138251 71.13825 129.957576 129.957576-129.957576 129.957577 71.138251 71.13825 129.957576-129.957576 129.957576 129.957576 71.138251-71.13825-129.957577-129.957577 129.957577-129.957576-71.138251-71.13825zM508.736193 9.911779C230.965679 9.911779 5.996626 234.880832 5.996626 512.651345S230.965679 1015.390912 508.736193 1015.390912s502.739567-224.969053 502.739567-502.739567S786.492547 9.911779 508.736193 9.911779z m0 904.93122c-221.698166 0-402.191654-180.479327-402.191654-402.191654 0-221.712326 180.479327-402.191654 402.191654-402.191653S910.927846 290.939019 910.927846 512.651345c0 221.698166-180.493487 402.191654-402.191653 402.191654z m0 0" p-id="4913" fill="#8746f8"></path></svg>